<svg width="53" height="46" viewBox="0 0 53 46" fill="none" xmlns="http://www.w3.org/2000/svg">
<path d="M13.0356 -2.67509e-06C9.03345 -3.02497e-06 5.83172 1.41974 3.43042 4.25925C1.14348 7.21234 3.05829e-06 11.0173 2.65118e-06 15.6741C2.09512e-06 22.0346 1.71521 27.7704 5.14563 32.8815C8.6904 38.1062 14.0647 42.479 21.2686 46L23.1553 43.2741C19.7249 41.2296 16.5804 38.3333 13.7217 34.5852C10.9773 30.9506 9.60518 27.2593 9.60518 23.5111C9.60518 22.4889 9.89105 21.637 10.4628 20.9556C11.0345 20.3877 11.8921 20.1037 13.0356 20.1037C15.8943 20.1037 18.2956 19.0815 20.2395 17.037C22.2977 15.1062 23.3269 12.721 23.3269 9.88147C23.3269 7.04197 22.2977 4.65678 20.2395 2.72592C18.2956 0.908636 15.8943 -2.42517e-06 13.0356 -2.67509e-06ZM42.7087 -8.09809e-08C38.7066 -4.3086e-07 35.5049 1.41975 33.1036 4.25925C30.8166 7.21234 29.6731 11.0173 29.6731 15.6741C29.6731 22.0346 31.3883 27.7704 34.8188 32.8815C38.3635 38.1062 43.7379 42.479 50.9417 46L52.8285 43.2741C49.3981 41.2296 46.2535 38.3333 43.3948 34.5852C40.6505 30.9506 39.2783 27.2593 39.2783 23.5111C39.2783 22.4889 39.5642 21.637 40.1359 20.9556C40.7077 20.3877 41.5653 20.1037 42.7087 20.1037C45.5674 20.1037 47.9687 19.0815 49.9126 17.037C51.9709 15.1062 53 12.721 53 9.88147C53 7.04197 51.9709 4.65678 49.9126 2.72592C47.9687 0.908638 45.5674 1.68933e-07 42.7087 -8.09809e-08Z" fill="#E3E3E3"/>
</svg>
