<svg width="24" height="24" viewBox="0 0 24 24" fill="none" xmlns="http://www.w3.org/2000/svg">
<path d="M16.6292 13.891L17.0852 13.438L16.0262 12.374L15.5722 12.827L16.6292 13.891ZM18.6142 13.248L20.5252 14.287L21.2402 12.969L19.3302 11.931L18.6142 13.248ZM20.8922 16.351L19.4722 17.764L20.5292 18.827L21.9492 17.415L20.8922 16.351ZM18.6062 18.218C17.1562 18.354 13.4062 18.233 9.34417 14.195L8.28617 15.258C12.7182 19.665 16.9372 19.881 18.7462 19.712L18.6062 18.218ZM9.34417 14.195C5.47317 10.345 4.83117 7.10799 4.75117 5.70299L3.25317 5.78799C3.35317 7.55599 4.14817 11.144 8.28617 15.258L9.34417 14.195ZM10.7192 8.01499L11.0062 7.72899L9.95017 6.66599L9.66317 6.95099L10.7192 8.01499ZM11.2342 4.09399L9.97417 2.40999L8.77317 3.30999L10.0332 4.99299L11.2342 4.09399ZM5.73317 2.04299L4.16317 3.60299L5.22117 4.66699L6.79017 3.10699L5.73317 2.04299ZM10.1912 7.48299C9.66117 6.95099 9.66117 6.95099 9.66117 6.95299H9.65917L9.65617 6.95699C9.60865 7.0049 9.5661 7.05751 9.52917 7.11399C9.47517 7.19399 9.41617 7.29899 9.36617 7.43199C9.24445 7.77532 9.21412 8.1444 9.27817 8.50299C9.41217 9.36799 10.0082 10.511 11.5342 12.029L12.5922 10.965C11.1632 9.54499 10.8232 8.68099 10.7602 8.27299C10.7302 8.07899 10.7612 7.98299 10.7702 7.96099C10.7762 7.94766 10.7762 7.94566 10.7702 7.95499C10.7613 7.96879 10.7512 7.98183 10.7402 7.99399L10.7302 8.00399L10.7202 8.01299L10.1912 7.48299ZM11.5342 12.029C13.0612 13.547 14.2102 14.139 15.0762 14.271C15.5192 14.339 15.8762 14.285 16.1472 14.184C16.299 14.1285 16.4408 14.0488 16.5672 13.948L16.6172 13.903L16.6242 13.897L16.6272 13.894L16.6282 13.892C16.6282 13.892 16.6292 13.891 16.1002 13.359C15.5702 12.827 15.5732 12.826 15.5732 12.826L15.5752 12.824L15.5772 12.822L15.5832 12.817L15.5932 12.807L15.6312 12.777C15.6405 12.771 15.6382 12.7717 15.6242 12.779C15.5992 12.788 15.5012 12.819 15.3042 12.789C14.8902 12.725 14.0202 12.385 12.5922 10.965L11.5342 12.029ZM9.97417 2.40899C8.95417 1.04899 6.95017 0.83299 5.73317 2.04299L6.79017 3.10699C7.32217 2.57799 8.26617 2.63299 8.77317 3.30999L9.97417 2.40899ZM4.75217 5.70399C4.73217 5.35799 4.89117 4.99599 5.22117 4.66799L4.16217 3.60399C3.62517 4.13799 3.20217 4.89399 3.25317 5.78799L4.75217 5.70399ZM19.4722 17.764C19.1982 18.038 18.9022 18.192 18.6072 18.219L18.7462 19.712C19.4812 19.643 20.0822 19.273 20.5302 18.828L19.4722 17.764ZM11.0062 7.72899C11.9912 6.74999 12.0642 5.20299 11.2352 4.09499L10.0342 4.99399C10.4372 5.53299 10.3772 6.23999 9.94917 6.66699L11.0062 7.72899ZM20.5262 14.288C21.3432 14.732 21.4702 15.778 20.8932 16.352L21.9512 17.415C23.2912 16.082 22.8782 13.859 21.2412 12.97L20.5262 14.288ZM17.0852 13.439C17.4692 13.057 18.0872 12.963 18.6152 13.249L19.3312 11.932C18.2472 11.342 16.9032 11.505 16.0272 12.375L17.0852 13.439Z" fill="#141414"/>
</svg>
