<svg width="61" height="60" viewBox="0 0 61 60" fill="none" xmlns="http://www.w3.org/2000/svg">
<path d="M42.4707 18.3868C43.5839 17.2794 43.5839 15.4747 42.4707 14.3673L38.375 10.2715L38.3808 10.2774C37.2968 9.19342 35.4335 7.33014 32.7968 4.69928C31.5546 3.48639 29.5449 3.49811 28.3144 4.72858L5.24019 27.7852C4.94497 28.0784 4.71067 28.4272 4.55079 28.8113C4.39091 29.1954 4.30859 29.6074 4.30859 30.0235C4.30859 30.4396 4.39091 30.8516 4.55079 31.2357C4.71067 31.6199 4.94497 31.9686 5.24019 32.2618L28.3085 55.3126C28.9033 55.9063 29.7094 56.2398 30.5498 56.2398C31.3902 56.2398 32.1962 55.9063 32.791 55.3126L42.4648 45.6446C43.5781 44.5372 43.5781 42.7325 42.4648 41.6251C41.9301 41.093 41.2064 40.7943 40.4521 40.7943C39.6978 40.7943 38.9741 41.093 38.4394 41.6251L31.1152 48.961C30.8105 49.2657 30.3359 49.2657 30.0312 48.961L11.6035 30.5508C11.2988 30.2462 11.2988 29.7715 11.6035 29.4669L30.0253 11.0567C30.0488 11.0333 30.0781 11.0157 30.1015 10.9923C30.4062 10.752 30.8281 10.7755 31.1093 11.0567L38.4453 18.3868C39.5585 19.5001 41.3632 19.5001 42.4707 18.3868ZM24.4414 30.1407C24.4414 31.791 25.0976 33.3738 26.2656 34.5408C27.4337 35.7077 29.018 36.3633 30.6699 36.3633C32.3218 36.3633 33.906 35.7077 35.0741 34.5408C36.2422 33.3738 36.8984 31.791 36.8984 30.1407C36.8984 28.4903 36.2422 26.9076 35.0741 25.7406C33.906 24.5736 32.3218 23.918 30.6699 23.918C29.018 23.918 27.4337 24.5736 26.2656 25.7406C25.0976 26.9076 24.4414 28.4903 24.4414 30.1407ZM55.8593 27.879L48.6582 20.713C47.5449 19.6055 45.7402 19.6055 44.6328 20.7188C44.3681 20.9823 44.1581 21.2955 44.0148 21.6404C43.8714 21.9853 43.7977 22.3551 43.7977 22.7286C43.7977 23.1021 43.8714 23.4719 44.0148 23.8168C44.1581 24.1617 44.3681 24.4748 44.6328 24.7383L49.496 29.5958C49.8007 29.9005 49.8007 30.3751 49.496 30.6798L44.7031 35.4669C44.4384 35.7304 44.2284 36.0436 44.0851 36.3884C43.9418 36.7333 43.868 37.1031 43.868 37.4766C43.868 37.8501 43.9418 38.2199 44.0851 38.5648C44.2284 38.9097 44.4384 39.2229 44.7031 39.4864C45.2378 40.0185 45.9614 40.3171 46.7158 40.3171C47.4701 40.3171 48.1937 40.0185 48.7285 39.4864L55.8652 32.3555C56.1594 32.0616 56.3927 31.7124 56.5517 31.3281C56.7106 30.9438 56.7922 30.5319 56.7916 30.116C56.7911 29.7001 56.7085 29.2885 56.5485 28.9046C56.3885 28.5207 56.1543 28.1722 55.8593 27.879Z" fill="#333333"/>
</svg>
