<svg width="61" height="60" viewBox="0 0 61 60" fill="none" xmlns="http://www.w3.org/2000/svg">
<path d="M47.5193 52.8688C47.5193 52.8688 47.0193 51.8263 46.0218 51.8263C45.0243 51.8263 44.5243 52.8688 44.5243 52.8688L43.053 52.26C43.053 52.26 43.4443 51.1713 42.7405 50.4663C42.0368 49.7613 40.943 50.145 40.943 50.145L40.333 48.6738C40.333 48.6738 41.3793 48.18 41.3793 47.1838C41.3793 46.1875 40.3368 45.6863 40.3368 45.6863L40.9468 44.215C40.9468 44.215 42.0343 44.6063 42.7393 43.9013C43.4443 43.1963 43.053 42.1088 43.053 42.1088L44.5243 41.4988C44.5243 41.4988 45.0255 42.5413 46.0218 42.5413C47.018 42.5413 47.5193 41.4988 47.5193 41.4988L48.9918 42.1088C48.9918 42.1088 48.6005 43.1963 49.3043 43.9013C50.0105 44.6063 51.1018 44.2225 51.1018 44.2225L51.7105 45.6938C51.7105 45.6938 50.6643 46.1875 50.6643 47.1838C50.6643 48.18 51.708 48.6813 51.708 48.6813L51.098 50.1525C51.098 50.1525 50.0105 49.7625 49.3055 50.4663C48.6005 51.1713 48.9918 52.26 48.9918 52.26L47.5193 52.8688Z" stroke="#333333" stroke-width="3" stroke-linecap="round" stroke-linejoin="round"/>
<path d="M48.2944 47.1838C48.3015 47.4866 48.248 47.7878 48.137 48.0697C48.026 48.3515 47.8598 48.6084 47.6481 48.825C47.4365 49.0417 47.1836 49.2139 46.9044 49.3315C46.6253 49.449 46.3254 49.5096 46.0225 49.5096C45.7196 49.5096 45.4197 49.449 45.1406 49.3315C44.8614 49.2139 44.6085 49.0417 44.3969 48.825C44.1852 48.6084 44.019 48.3515 43.908 48.0697C43.797 47.7878 43.7435 47.4866 43.7506 47.1838C43.7645 46.5905 44.01 46.0262 44.4346 45.6115C44.8591 45.1968 45.429 44.9646 46.0225 44.9646C46.616 44.9646 47.1859 45.1968 47.6105 45.6115C48.035 46.0262 48.2805 46.5905 48.2944 47.1838Z" stroke="#333333" stroke-width="3" stroke-linecap="round" stroke-linejoin="round"/>
<path d="M54.4629 47.1837C54.4765 48.3008 54.2682 49.4095 53.8502 50.4455C53.4321 51.4815 52.8125 52.4242 52.0274 53.2189C51.2422 54.0136 50.3072 54.6446 49.2763 55.0753C48.2455 55.506 47.1395 55.7277 46.0223 55.7277C44.9051 55.7277 43.7991 55.506 42.7683 55.0753C41.7374 54.6446 40.8024 54.0136 40.0172 53.2189C39.2321 52.4242 38.6125 51.4815 38.1944 50.4455C37.7764 49.4095 37.5681 48.3008 37.5817 47.1837C37.6087 44.9629 38.5099 42.8423 40.0899 41.2814C41.6699 39.7205 43.8013 38.8452 46.0223 38.8452C48.2433 38.8452 50.3748 39.7205 51.9547 41.2814C53.5347 42.8423 54.4359 44.9629 54.4629 47.1837Z" stroke="#333333" stroke-width="3" stroke-linecap="round" stroke-linejoin="round"/>
<path d="M6.53711 17.0762L28.5371 29.7774V55.0224L6.53711 42.3212V17.0762Z" stroke="#333333" stroke-width="3" stroke-linecap="round" stroke-linejoin="round"/>
<path d="M9.28711 31.2861L12.0371 32.8736V26.5624L14.7871 28.1499V24.9949L17.5371 26.5824V32.8936L20.2871 34.4811V31.3261L23.0371 32.9136V36.0686L25.7871 37.6561V34.5011L28.5371 36.0886V29.7774L25.7871 28.1899L23.0371 26.6024L20.2871 25.0149L17.5371 23.4274L14.7871 21.8399L12.0371 20.2524L9.28711 18.6649L6.53711 17.0774V26.5436L9.28711 28.1311V31.2861Z" stroke="#333333" stroke-width="3" stroke-linecap="round" stroke-linejoin="round"/>
<path d="M28.5361 29.7775L50.5361 17.0763L28.5374 4.375L6.53613 17.0775L28.5361 29.7775ZM28.5361 29.7775V55.0212L37.9336 49.5962M28.5361 29.7775L50.5361 17.0788V40.0562" stroke="#333333" stroke-width="3" stroke-linecap="round" stroke-linejoin="round"/>
<path d="M31.2874 40.8124L34.0374 39.2249V32.9124L36.7861 31.3249V28.1699L39.5361 26.5824V32.8949L42.2861 31.3061V28.1511L45.0361 26.5636V29.7186L47.7861 28.1311V24.9749L50.5361 23.3874V17.0774L47.7861 18.6649L45.0361 20.2524L42.2861 21.8399L39.5361 23.4274L36.7861 25.0149L34.0361 26.6024L31.2861 28.1899L28.5361 29.7774V39.2449L31.2861 37.6574L31.2874 40.8124Z" stroke="#333333" stroke-width="3" stroke-linecap="round" stroke-linejoin="round"/>
</svg>
