<svg width="61" height="60" viewBox="0 0 61 60" fill="none" xmlns="http://www.w3.org/2000/svg">
<path d="M48.775 47.25C49.875 45.525 50.5 43.45 50.5 41.25C50.5 35 45.5 30 39.25 30C33 30 28 35 28 41.25C28 47.5 33 52.5 39.25 52.5C41.425 52.5 43.475 51.875 45.2 50.8L53 58.475L56.475 55L48.775 47.25ZM39.25 47.5C37.5924 47.5 36.0027 46.8415 34.8306 45.6694C33.6585 44.4973 33 42.9076 33 41.25C33 39.5924 33.6585 38.0027 34.8306 36.8306C36.0027 35.6585 37.5924 35 39.25 35C40.9076 35 42.4973 35.6585 43.6694 36.8306C44.8415 38.0027 45.5 39.5924 45.5 41.25C45.5 42.9076 44.8415 44.4973 43.6694 45.6694C42.4973 46.8415 40.9076 47.5 39.25 47.5ZM13 50V30H5.5L30.5 7.5L55.5 30H50.95C48.7964 27.7456 46.0347 26.1649 43 25.45L30.5 14.225L18 25.475V45H23.45C23.875 46.8 24.6 48.475 25.575 50H13Z" fill="#333333"/>
</svg>
