<svg width="53" height="46" viewBox="0 0 53 46" fill="none" xmlns="http://www.w3.org/2000/svg">
<path d="M39.9644 -2.67509e-06C43.9666 -3.02497e-06 47.1683 1.41974 49.5696 4.25925C51.8565 7.21234 53 11.0173 53 15.6741C53 22.0346 51.2848 27.7704 47.8544 32.8815C44.3096 38.1062 38.9353 42.479 31.7314 46L29.8447 43.2741C33.2751 41.2296 36.4196 38.3333 39.2783 34.5852C42.0227 30.9506 43.3948 27.2593 43.3948 23.5111C43.3948 22.4889 43.109 21.637 42.5372 20.9556C41.9655 20.3877 41.1079 20.1037 39.9644 20.1037C37.1057 20.1037 34.7044 19.0815 32.7605 17.037C30.7023 15.1062 29.6731 12.721 29.6731 9.88147C29.6731 7.04197 30.7023 4.65678 32.7605 2.72592C34.7044 0.908636 37.1057 -2.42517e-06 39.9644 -2.67509e-06ZM10.2913 -8.09809e-08C14.2934 -4.3086e-07 17.4951 1.41975 19.8964 4.25925C22.1834 7.21234 23.3269 11.0173 23.3269 15.6741C23.3269 22.0346 21.6117 27.7704 18.1812 32.8815C14.6365 38.1062 9.26214 42.479 2.05825 46L0.17152 43.2741C3.60194 41.2296 6.74649 38.3333 9.60518 34.5852C12.3495 30.9506 13.7217 27.2593 13.7217 23.5111C13.7217 22.4889 13.4358 21.637 12.8641 20.9556C12.2923 20.3877 11.4347 20.1037 10.2913 20.1037C7.43258 20.1037 5.03128 19.0815 3.08738 17.037C1.02912 15.1062 9.05353e-07 12.721 6.57115e-07 9.88147C4.08878e-07 7.04197 1.02912 4.65678 3.08738 2.72592C5.03128 0.908638 7.43258 1.68933e-07 10.2913 -8.09809e-08Z" fill="#E3E3E3"/>
</svg>
