<svg width="18" height="18" viewBox="0 0 18 18" fill="none" xmlns="http://www.w3.org/2000/svg">
<path fill-rule="evenodd" clip-rule="evenodd" d="M3.60034 3.28678C3.60018 3.3428 3.58434 3.39766 3.5546 3.44515C3.52487 3.49263 3.48243 3.53084 3.43209 3.55544C3.38176 3.58005 3.32554 3.59007 3.26981 3.58436C3.21407 3.57866 3.16105 3.55747 3.11674 3.52318L1.20514 2.03638C1.16923 2.00832 1.14018 1.97245 1.1202 1.93149C1.10023 1.89053 1.08984 1.84555 1.08984 1.79998C1.08984 1.7544 1.10023 1.70943 1.1202 1.66847C1.14018 1.62751 1.16923 1.59164 1.20514 1.56358L3.11674 0.0755782C3.16121 0.0411648 3.21446 0.0199418 3.27041 0.0143301C3.32635 0.00871845 3.38275 0.0189439 3.43317 0.0438401C3.48359 0.0687364 3.526 0.107301 3.55555 0.155136C3.58511 0.20297 3.60063 0.258149 3.60034 0.314378V1.20238H10.8003V0.311978C10.8003 0.255744 10.8161 0.200639 10.8459 0.152947C10.8757 0.105256 10.9183 0.0668991 10.9689 0.0422522C11.0194 0.0176054 11.0759 0.00766107 11.1318 0.0135536C11.1877 0.0194461 11.2408 0.0409382 11.2851 0.0755782L13.1955 1.56238C13.2315 1.59044 13.2605 1.62631 13.2805 1.66727C13.3005 1.70823 13.3108 1.7532 13.3108 1.79878C13.3108 1.84435 13.3005 1.88933 13.2805 1.93029C13.2605 1.97125 13.2315 2.00712 13.1955 2.03518L11.2851 3.52318C11.2408 3.55788 11.1875 3.57939 11.1315 3.58524C11.0754 3.59108 11.0189 3.58104 10.9683 3.55624C10.9177 3.53145 10.8751 3.49291 10.8454 3.44505C10.8157 3.39718 10.8001 3.34191 10.8003 3.28558V2.39998H3.60034V3.28678ZM11.4003 5.99998H3.00034C2.84121 5.99998 2.6886 6.06319 2.57608 6.17571C2.46356 6.28824 2.40034 6.44085 2.40034 6.59998V15C2.40034 15.1591 2.46356 15.3117 2.57608 15.4242C2.6886 15.5368 2.84121 15.6 3.00034 15.6H11.4003C11.5595 15.6 11.7121 15.5368 11.8246 15.4242C11.9371 15.3117 12.0003 15.1591 12.0003 15V6.59998C12.0003 6.44085 11.9371 6.28824 11.8246 6.17571C11.7121 6.06319 11.5595 5.99998 11.4003 5.99998ZM3.00034 4.79998C2.52295 4.79998 2.06511 4.98962 1.72755 5.32719C1.38998 5.66475 1.20034 6.12259 1.20034 6.59998V15C1.20034 15.4774 1.38998 15.9352 1.72755 16.2728C2.06511 16.6103 2.52295 16.8 3.00034 16.8H11.4003C11.8777 16.8 12.3356 16.6103 12.6731 16.2728C13.0107 15.9352 13.2003 15.4774 13.2003 15V6.59998C13.2003 6.12259 13.0107 5.66475 12.6731 5.32719C12.3356 4.98962 11.8777 4.79998 11.4003 4.79998H3.00034ZM17.6871 7.19998H16.8003V14.4H17.6871C17.7432 14.4001 17.798 14.416 17.8455 14.4457C17.893 14.4755 17.9312 14.5179 17.9558 14.5682C17.9804 14.6186 17.9904 14.6748 17.9847 14.7305C17.979 14.7862 17.9578 14.8393 17.9235 14.8836L16.4367 16.7952C16.4087 16.8311 16.3728 16.8601 16.3319 16.8801C16.2909 16.9001 16.2459 16.9105 16.2003 16.9105C16.1548 16.9105 16.1098 16.9001 16.0688 16.8801C16.0279 16.8601 15.992 16.8311 15.9639 16.7952L14.4759 14.8836C14.4416 14.8392 14.4204 14.7861 14.4147 14.7302C14.4091 14.6744 14.4192 14.6181 14.4439 14.5677C14.4687 14.5173 14.5071 14.4749 14.5547 14.4452C14.6024 14.4156 14.6574 14.3999 14.7135 14.4H15.6003V7.19998H14.7135C14.6575 7.19982 14.6027 7.18397 14.5552 7.15424C14.5077 7.1245 14.4695 7.08206 14.4449 7.03173C14.4203 6.9814 14.4103 6.92518 14.416 6.86945C14.4217 6.81371 14.4429 6.76069 14.4771 6.71638L15.9639 4.80478C15.992 4.76887 16.0279 4.73982 16.0688 4.71984C16.1098 4.69986 16.1548 4.68948 16.2003 4.68948C16.2459 4.68948 16.2909 4.69986 16.3319 4.71984C16.3728 4.73982 16.4087 4.76887 16.4367 4.80478L17.9247 6.71638C17.9591 6.76077 17.9803 6.8139 17.986 6.86974C17.9916 6.92558 17.9815 6.98189 17.9567 7.03227C17.932 7.08264 17.8936 7.12507 17.8459 7.15471C17.7983 7.18436 17.7433 7.20004 17.6871 7.19998Z" fill="#616161"/>
</svg>
